<mxfile host="Electron" modified="2024-02-03T01:53:27.047Z" agent="Mozilla/5.0 (Windows NT 10.0; Win64; x64) AppleWebKit/537.36 (KHTML, like Gecko) draw.io/23.0.2 Chrome/120.0.6099.109 Electron/28.1.0 Safari/537.36" etag="-VUh9Gsj0nYMw47g7HKW" version="23.0.2" type="device">
  <diagram name="PÃ¡gina-1" id="todUpn3DJYc6OTOnrhbV">
    <mxGraphModel dx="1408" dy="819" grid="1" gridSize="10" guides="1" tooltips="1" connect="1" arrows="1" fold="1" page="1" pageScale="1" pageWidth="827" pageHeight="1169" math="0" shadow="0">
      <root>
        <mxCell id="0" />
        <mxCell id="1" parent="0" />
        <mxCell id="sRXfMpl5qVnzSQ7J-JLT-4" style="edgeStyle=orthogonalEdgeStyle;rounded=0;orthogonalLoop=1;jettySize=auto;html=1;exitX=1;exitY=0.5;exitDx=0;exitDy=0;exitPerimeter=0;" edge="1" parent="1" source="sRXfMpl5qVnzSQ7J-JLT-1" target="sRXfMpl5qVnzSQ7J-JLT-2">
          <mxGeometry relative="1" as="geometry" />
        </mxCell>
        <mxCell id="sRXfMpl5qVnzSQ7J-JLT-1" value="cut" style="strokeWidth=2;html=1;shape=mxgraph.flowchart.start_2;whiteSpace=wrap;" vertex="1" parent="1">
          <mxGeometry x="10" y="360" width="100" height="100" as="geometry" />
        </mxCell>
        <mxCell id="sRXfMpl5qVnzSQ7J-JLT-5" style="edgeStyle=orthogonalEdgeStyle;rounded=0;orthogonalLoop=1;jettySize=auto;html=1;exitX=1;exitY=0.5;exitDx=0;exitDy=0;entryX=0;entryY=0.5;entryDx=0;entryDy=0;entryPerimeter=0;" edge="1" parent="1" source="sRXfMpl5qVnzSQ7J-JLT-2" target="sRXfMpl5qVnzSQ7J-JLT-7">
          <mxGeometry relative="1" as="geometry">
            <mxPoint x="382.53999999999996" y="410" as="targetPoint" />
          </mxGeometry>
        </mxCell>
        <mxCell id="sRXfMpl5qVnzSQ7J-JLT-2" value="click" style="rounded=1;whiteSpace=wrap;html=1;absoluteArcSize=1;arcSize=14;strokeWidth=2;" vertex="1" parent="1">
          <mxGeometry x="180" y="360" width="100" height="100" as="geometry" />
        </mxCell>
        <mxCell id="sRXfMpl5qVnzSQ7J-JLT-14" style="edgeStyle=orthogonalEdgeStyle;rounded=0;orthogonalLoop=1;jettySize=auto;html=1;exitX=0.5;exitY=1;exitDx=0;exitDy=0;" edge="1" parent="1" source="sRXfMpl5qVnzSQ7J-JLT-6" target="sRXfMpl5qVnzSQ7J-JLT-13">
          <mxGeometry relative="1" as="geometry" />
        </mxCell>
        <mxCell id="sRXfMpl5qVnzSQ7J-JLT-6" value="creates a sub-image&amp;nbsp;&lt;br&gt;&amp;nbsp;using the&amp;nbsp;&lt;br&gt;size of the selection" style="shape=parallelogram;html=1;strokeWidth=2;perimeter=parallelogramPerimeter;whiteSpace=wrap;rounded=1;arcSize=12;size=0.23;" vertex="1" parent="1">
          <mxGeometry x="430" y="530" width="196" height="110" as="geometry" />
        </mxCell>
        <mxCell id="sRXfMpl5qVnzSQ7J-JLT-8" style="edgeStyle=orthogonalEdgeStyle;rounded=0;orthogonalLoop=1;jettySize=auto;html=1;exitX=0.5;exitY=1;exitDx=0;exitDy=0;exitPerimeter=0;entryX=0.25;entryY=0;entryDx=0;entryDy=0;" edge="1" parent="1" source="sRXfMpl5qVnzSQ7J-JLT-7" target="sRXfMpl5qVnzSQ7J-JLT-6">
          <mxGeometry relative="1" as="geometry" />
        </mxCell>
        <mxCell id="sRXfMpl5qVnzSQ7J-JLT-7" value="selection" style="strokeWidth=2;html=1;shape=mxgraph.flowchart.decision;whiteSpace=wrap;" vertex="1" parent="1">
          <mxGeometry x="400" y="360" width="100" height="100" as="geometry" />
        </mxCell>
        <mxCell id="sRXfMpl5qVnzSQ7J-JLT-9" value="is not null" style="text;html=1;align=center;verticalAlign=middle;resizable=0;points=[];autosize=1;strokeColor=none;fillColor=none;" vertex="1" parent="1">
          <mxGeometry x="365" y="468" width="70" height="30" as="geometry" />
        </mxCell>
        <mxCell id="sRXfMpl5qVnzSQ7J-JLT-10" value="is null" style="text;html=1;align=center;verticalAlign=middle;resizable=0;points=[];autosize=1;strokeColor=none;fillColor=none;" vertex="1" parent="1">
          <mxGeometry x="500" y="330" width="50" height="30" as="geometry" />
        </mxCell>
        <mxCell id="sRXfMpl5qVnzSQ7J-JLT-11" value="error could not save &lt;br&gt;from null selection" style="strokeWidth=2;html=1;shape=mxgraph.flowchart.display;whiteSpace=wrap;" vertex="1" parent="1">
          <mxGeometry x="590" y="250" width="160" height="140" as="geometry" />
        </mxCell>
        <mxCell id="sRXfMpl5qVnzSQ7J-JLT-12" style="edgeStyle=orthogonalEdgeStyle;rounded=0;orthogonalLoop=1;jettySize=auto;html=1;exitX=0.5;exitY=0;exitDx=0;exitDy=0;exitPerimeter=0;entryX=0;entryY=0.5;entryDx=0;entryDy=0;entryPerimeter=0;" edge="1" parent="1" source="sRXfMpl5qVnzSQ7J-JLT-7" target="sRXfMpl5qVnzSQ7J-JLT-11">
          <mxGeometry relative="1" as="geometry" />
        </mxCell>
        <mxCell id="sRXfMpl5qVnzSQ7J-JLT-13" value="saves sub-image&amp;nbsp;" style="rounded=1;whiteSpace=wrap;html=1;absoluteArcSize=1;arcSize=14;strokeWidth=2;" vertex="1" parent="1">
          <mxGeometry x="478" y="740" width="100" height="100" as="geometry" />
        </mxCell>
      </root>
    </mxGraphModel>
  </diagram>
</mxfile>
